<?xml version="1.0" standalone="no"?>
<!DOCTYPE svg PUBLIC "-//W3C//DTD SVG 20010904//EN"
 "http://www.w3.org/TR/2001/REC-SVG-20010904/DTD/svg10.dtd">
<svg version="1.0" xmlns="http://www.w3.org/2000/svg"
 width="200.000000pt" height="200.000000pt" viewBox="0 0 200.000000 200.000000"
 preserveAspectRatio="xMidYMid meet">
<metadata>
Created by potrace 1.14, written by Peter Selinger 2001-2017
</metadata>
<g transform="translate(0.000000,200.000000) scale(0.100000,-0.100000)"
fill="#000000" stroke="none">
<path d="M812 1403 c-32 -18 -112 -92 -166 -154 -183 -212 -192 -255 -77 -361
95 -87 164 -137 268 -189 54 -27 134 -72 177 -99 98 -62 137 -66 165 -18 11
17 36 75 56 128 28 74 50 113 96 169 70 86 79 113 65 186 -11 57 -53 136 -85
162 -18 14 -48 24 -87 28 -32 4 -72 9 -89 11 -37 6 -97 42 -150 89 -44 39 -93
65 -122 65 -10 0 -33 -8 -51 -17z"/>
</g>
</svg>
