<?xml version="1.0" standalone="no"?>
<!DOCTYPE svg PUBLIC "-//W3C//DTD SVG 20010904//EN"
 "http://www.w3.org/TR/2001/REC-SVG-20010904/DTD/svg10.dtd">
<svg version="1.0" xmlns="http://www.w3.org/2000/svg"
 width="700.000000pt" height="700.000000pt" viewBox="0 0 700.000000 700.000000"
 preserveAspectRatio="xMidYMid meet">
<metadata>
Created by potrace 1.14, written by Peter Selinger 2001-2017
</metadata>
<g transform="translate(0.000000,700.000000) scale(0.100000,-0.100000)"
fill="#000000" stroke="none">
<path d="M2907 4945 c-116 -48 -213 -119 -352 -260 -106 -107 -128 -131 -245
-265 -41 -47 -93 -105 -116 -130 -23 -25 -75 -83 -115 -130 -40 -47 -75 -87
-78 -90 -17 -14 -132 -173 -167 -230 -167 -271 -147 -429 85 -674 31 -32 94
-90 141 -130 47 -39 87 -73 90 -76 13 -15 320 -252 393 -304 73 -52 189 -112
522 -271 55 -26 203 -115 329 -198 324 -212 446 -271 558 -268 57 1 92 17 141
66 69 69 112 161 217 465 116 336 138 377 324 599 197 234 222 270 256 372 85
251 -125 784 -359 916 -69 39 -156 56 -341 68 -81 5 -201 20 -245 29 -51 11
-81 19 -90 26 -5 4 -22 10 -36 13 -54 13 -174 101 -390 287 -89 77 -182 141
-254 176 -82 40 -184 43 -268 9z"/>
</g>
</svg>
